<mxfile host="app.diagrams.net" agent="Mozilla/5.0 (Windows NT 10.0; Win64; x64) AppleWebKit/537.36 (KHTML, like Gecko) Chrome/132.0.0.0 Safari/537.36" version="26.0.9" pages="3">
  <diagram name="Page-1" id="Xw11mbETAYtTtZjQ2i3f">
    <mxGraphModel grid="1" page="1" gridSize="10" guides="1" tooltips="1" connect="1" arrows="1" fold="1" pageScale="1" pageWidth="850" pageHeight="1100" math="0" shadow="0">
      <root>
        <mxCell id="0" />
        <mxCell id="1" parent="0" />
        <mxCell id="4XtbS9QP_jxTECoMFuG9-1" value="Users" style="swimlane;fontStyle=1;align=center;verticalAlign=top;childLayout=stackLayout;horizontal=1;startSize=26;horizontalStack=0;resizeParent=1;resizeParentMax=0;resizeLast=0;collapsible=1;marginBottom=0;whiteSpace=wrap;html=1;" vertex="1" parent="1">
          <mxGeometry x="360" y="20" width="160" height="268" as="geometry">
            <mxRectangle x="200" y="100" width="100" height="30" as="alternateBounds" />
          </mxGeometry>
        </mxCell>
        <mxCell id="4XtbS9QP_jxTECoMFuG9-2" value="+userId:int" style="text;strokeColor=none;fillColor=none;align=left;verticalAlign=top;spacingLeft=4;spacingRight=4;overflow=hidden;rotatable=0;points=[[0,0.5],[1,0.5]];portConstraint=eastwest;whiteSpace=wrap;html=1;" vertex="1" parent="4XtbS9QP_jxTECoMFuG9-1">
          <mxGeometry y="26" width="160" height="26" as="geometry" />
        </mxCell>
        <mxCell id="4XtbS9QP_jxTECoMFuG9-6" value="+userName:String" style="text;strokeColor=none;fillColor=none;align=left;verticalAlign=top;spacingLeft=4;spacingRight=4;overflow=hidden;rotatable=0;points=[[0,0.5],[1,0.5]];portConstraint=eastwest;whiteSpace=wrap;html=1;" vertex="1" parent="4XtbS9QP_jxTECoMFuG9-1">
          <mxGeometry y="52" width="160" height="26" as="geometry" />
        </mxCell>
        <mxCell id="4XtbS9QP_jxTECoMFuG9-7" value="+phoneNum:String" style="text;strokeColor=none;fillColor=none;align=left;verticalAlign=top;spacingLeft=4;spacingRight=4;overflow=hidden;rotatable=0;points=[[0,0.5],[1,0.5]];portConstraint=eastwest;whiteSpace=wrap;html=1;" vertex="1" parent="4XtbS9QP_jxTECoMFuG9-1">
          <mxGeometry y="78" width="160" height="26" as="geometry" />
        </mxCell>
        <mxCell id="4XtbS9QP_jxTECoMFuG9-18" value="+name:String" style="text;strokeColor=none;fillColor=none;align=left;verticalAlign=top;spacingLeft=4;spacingRight=4;overflow=hidden;rotatable=0;points=[[0,0.5],[1,0.5]];portConstraint=eastwest;whiteSpace=wrap;html=1;" vertex="1" parent="4XtbS9QP_jxTECoMFuG9-1">
          <mxGeometry y="104" width="160" height="26" as="geometry" />
        </mxCell>
        <mxCell id="4XtbS9QP_jxTECoMFuG9-8" value="+emailAddress:String" style="text;strokeColor=none;fillColor=none;align=left;verticalAlign=top;spacingLeft=4;spacingRight=4;overflow=hidden;rotatable=0;points=[[0,0.5],[1,0.5]];portConstraint=eastwest;whiteSpace=wrap;html=1;" vertex="1" parent="4XtbS9QP_jxTECoMFuG9-1">
          <mxGeometry y="130" width="160" height="26" as="geometry" />
        </mxCell>
        <mxCell id="4XtbS9QP_jxTECoMFuG9-9" value="#pwd:String" style="text;strokeColor=none;fillColor=none;align=left;verticalAlign=top;spacingLeft=4;spacingRight=4;overflow=hidden;rotatable=0;points=[[0,0.5],[1,0.5]];portConstraint=eastwest;whiteSpace=wrap;html=1;" vertex="1" parent="4XtbS9QP_jxTECoMFuG9-1">
          <mxGeometry y="156" width="160" height="26" as="geometry" />
        </mxCell>
        <mxCell id="4XtbS9QP_jxTECoMFuG9-33" value="+IsCustomer:bool" style="text;strokeColor=none;fillColor=none;align=left;verticalAlign=top;spacingLeft=4;spacingRight=4;overflow=hidden;rotatable=0;points=[[0,0.5],[1,0.5]];portConstraint=eastwest;whiteSpace=wrap;html=1;" vertex="1" parent="4XtbS9QP_jxTECoMFuG9-1">
          <mxGeometry y="182" width="160" height="26" as="geometry" />
        </mxCell>
        <mxCell id="4XtbS9QP_jxTECoMFuG9-3" value="" style="line;strokeWidth=1;fillColor=none;align=left;verticalAlign=middle;spacingTop=-1;spacingLeft=3;spacingRight=3;rotatable=0;labelPosition=right;points=[];portConstraint=eastwest;strokeColor=inherit;" vertex="1" parent="4XtbS9QP_jxTECoMFuG9-1">
          <mxGeometry y="208" width="160" height="8" as="geometry" />
        </mxCell>
        <mxCell id="4XtbS9QP_jxTECoMFuG9-5" value="+Login(userName,pwd):void" style="text;strokeColor=none;fillColor=none;align=left;verticalAlign=top;spacingLeft=4;spacingRight=4;overflow=hidden;rotatable=0;points=[[0,0.5],[1,0.5]];portConstraint=eastwest;whiteSpace=wrap;html=1;" vertex="1" parent="4XtbS9QP_jxTECoMFuG9-1">
          <mxGeometry y="216" width="160" height="26" as="geometry" />
        </mxCell>
        <mxCell id="2t8qWetCkka7SkBRdkZW-12" value="+help():void" style="text;strokeColor=none;fillColor=none;align=left;verticalAlign=top;spacingLeft=4;spacingRight=4;overflow=hidden;rotatable=0;points=[[0,0.5],[1,0.5]];portConstraint=eastwest;whiteSpace=wrap;html=1;" vertex="1" parent="4XtbS9QP_jxTECoMFuG9-1">
          <mxGeometry y="242" width="160" height="26" as="geometry" />
        </mxCell>
        <mxCell id="4XtbS9QP_jxTECoMFuG9-10" value="Customer" style="swimlane;fontStyle=1;align=center;verticalAlign=top;childLayout=stackLayout;horizontal=1;startSize=26;horizontalStack=0;resizeParent=1;resizeParentMax=0;resizeLast=0;collapsible=1;marginBottom=0;whiteSpace=wrap;html=1;" vertex="1" parent="1">
          <mxGeometry x="40" y="330" width="290" height="164" as="geometry">
            <mxRectangle x="200" y="100" width="100" height="30" as="alternateBounds" />
          </mxGeometry>
        </mxCell>
        <mxCell id="4XtbS9QP_jxTECoMFuG9-11" value="+nic:string" style="text;strokeColor=none;fillColor=none;align=left;verticalAlign=top;spacingLeft=4;spacingRight=4;overflow=hidden;rotatable=0;points=[[0,0.5],[1,0.5]];portConstraint=eastwest;whiteSpace=wrap;html=1;" vertex="1" parent="4XtbS9QP_jxTECoMFuG9-10">
          <mxGeometry y="26" width="290" height="26" as="geometry" />
        </mxCell>
        <mxCell id="4XtbS9QP_jxTECoMFuG9-13" value="+address:String" style="text;strokeColor=none;fillColor=none;align=left;verticalAlign=top;spacingLeft=4;spacingRight=4;overflow=hidden;rotatable=0;points=[[0,0.5],[1,0.5]];portConstraint=eastwest;whiteSpace=wrap;html=1;" vertex="1" parent="4XtbS9QP_jxTECoMFuG9-10">
          <mxGeometry y="52" width="290" height="26" as="geometry" />
        </mxCell>
        <mxCell id="4XtbS9QP_jxTECoMFuG9-16" value="" style="line;strokeWidth=1;fillColor=none;align=left;verticalAlign=middle;spacingTop=-1;spacingLeft=3;spacingRight=3;rotatable=0;labelPosition=right;points=[];portConstraint=eastwest;strokeColor=inherit;" vertex="1" parent="4XtbS9QP_jxTECoMFuG9-10">
          <mxGeometry y="78" width="290" height="8" as="geometry" />
        </mxCell>
        <mxCell id="4XtbS9QP_jxTECoMFuG9-17" value="+makeBooking():void" style="text;strokeColor=none;fillColor=none;align=left;verticalAlign=top;spacingLeft=4;spacingRight=4;overflow=hidden;rotatable=0;points=[[0,0.5],[1,0.5]];portConstraint=eastwest;whiteSpace=wrap;html=1;" vertex="1" parent="4XtbS9QP_jxTECoMFuG9-10">
          <mxGeometry y="86" width="290" height="26" as="geometry" />
        </mxCell>
        <mxCell id="2t8qWetCkka7SkBRdkZW-8" value="+viewMyBooking(int Id):string" style="text;strokeColor=none;fillColor=none;align=left;verticalAlign=top;spacingLeft=4;spacingRight=4;overflow=hidden;rotatable=0;points=[[0,0.5],[1,0.5]];portConstraint=eastwest;whiteSpace=wrap;html=1;" vertex="1" parent="4XtbS9QP_jxTECoMFuG9-10">
          <mxGeometry y="112" width="290" height="26" as="geometry" />
        </mxCell>
        <mxCell id="2t8qWetCkka7SkBRdkZW-10" value="+makePayment(float amount,int OderId):bool" style="text;strokeColor=none;fillColor=none;align=left;verticalAlign=top;spacingLeft=4;spacingRight=4;overflow=hidden;rotatable=0;points=[[0,0.5],[1,0.5]];portConstraint=eastwest;whiteSpace=wrap;html=1;" vertex="1" parent="4XtbS9QP_jxTECoMFuG9-10">
          <mxGeometry y="138" width="290" height="26" as="geometry" />
        </mxCell>
        <mxCell id="4XtbS9QP_jxTECoMFuG9-22" value="Employees" style="swimlane;fontStyle=1;align=center;verticalAlign=top;childLayout=stackLayout;horizontal=1;startSize=26;horizontalStack=0;resizeParent=1;resizeParentMax=0;resizeLast=0;collapsible=1;marginBottom=0;whiteSpace=wrap;html=1;" vertex="1" parent="1">
          <mxGeometry x="500" y="330" width="160" height="112" as="geometry">
            <mxRectangle x="200" y="100" width="100" height="30" as="alternateBounds" />
          </mxGeometry>
        </mxCell>
        <mxCell id="4XtbS9QP_jxTECoMFuG9-23" value="+userType:String" style="text;strokeColor=none;fillColor=none;align=left;verticalAlign=top;spacingLeft=4;spacingRight=4;overflow=hidden;rotatable=0;points=[[0,0.5],[1,0.5]];portConstraint=eastwest;whiteSpace=wrap;html=1;" vertex="1" parent="4XtbS9QP_jxTECoMFuG9-22">
          <mxGeometry y="26" width="160" height="26" as="geometry" />
        </mxCell>
        <mxCell id="4XtbS9QP_jxTECoMFuG9-27" value="+branch:string" style="text;strokeColor=none;fillColor=none;align=left;verticalAlign=top;spacingLeft=4;spacingRight=4;overflow=hidden;rotatable=0;points=[[0,0.5],[1,0.5]];portConstraint=eastwest;whiteSpace=wrap;html=1;" vertex="1" parent="4XtbS9QP_jxTECoMFuG9-22">
          <mxGeometry y="52" width="160" height="26" as="geometry" />
        </mxCell>
        <mxCell id="2t8qWetCkka7SkBRdkZW-2" value="+employeeID:int" style="text;strokeColor=none;fillColor=none;align=left;verticalAlign=top;spacingLeft=4;spacingRight=4;overflow=hidden;rotatable=0;points=[[0,0.5],[1,0.5]];portConstraint=eastwest;whiteSpace=wrap;html=1;" vertex="1" parent="4XtbS9QP_jxTECoMFuG9-22">
          <mxGeometry y="78" width="160" height="26" as="geometry" />
        </mxCell>
        <mxCell id="4XtbS9QP_jxTECoMFuG9-29" value="" style="line;strokeWidth=1;fillColor=none;align=left;verticalAlign=middle;spacingTop=-1;spacingLeft=3;spacingRight=3;rotatable=0;labelPosition=right;points=[];portConstraint=eastwest;strokeColor=inherit;" vertex="1" parent="4XtbS9QP_jxTECoMFuG9-22">
          <mxGeometry y="104" width="160" height="8" as="geometry" />
        </mxCell>
        <mxCell id="2t8qWetCkka7SkBRdkZW-13" value="Driver" style="swimlane;fontStyle=1;align=center;verticalAlign=top;childLayout=stackLayout;horizontal=1;startSize=26;horizontalStack=0;resizeParent=1;resizeParentMax=0;resizeLast=0;collapsible=1;marginBottom=0;whiteSpace=wrap;html=1;" vertex="1" parent="1">
          <mxGeometry x="450" y="574" width="190" height="150" as="geometry">
            <mxRectangle x="200" y="100" width="100" height="30" as="alternateBounds" />
          </mxGeometry>
        </mxCell>
        <mxCell id="2t8qWetCkka7SkBRdkZW-14" value="+licenseNumber:String" style="text;strokeColor=none;fillColor=none;align=left;verticalAlign=top;spacingLeft=4;spacingRight=4;overflow=hidden;rotatable=0;points=[[0,0.5],[1,0.5]];portConstraint=eastwest;whiteSpace=wrap;html=1;" vertex="1" parent="2t8qWetCkka7SkBRdkZW-13">
          <mxGeometry y="26" width="190" height="26" as="geometry" />
        </mxCell>
        <mxCell id="2t8qWetCkka7SkBRdkZW-15" value="+dbo:Date" style="text;strokeColor=none;fillColor=none;align=left;verticalAlign=top;spacingLeft=4;spacingRight=4;overflow=hidden;rotatable=0;points=[[0,0.5],[1,0.5]];portConstraint=eastwest;whiteSpace=wrap;html=1;" vertex="1" parent="2t8qWetCkka7SkBRdkZW-13">
          <mxGeometry y="52" width="190" height="26" as="geometry" />
        </mxCell>
        <mxCell id="2t8qWetCkka7SkBRdkZW-17" value="" style="line;strokeWidth=1;fillColor=none;align=left;verticalAlign=middle;spacingTop=-1;spacingLeft=3;spacingRight=3;rotatable=0;labelPosition=right;points=[];portConstraint=eastwest;strokeColor=inherit;" vertex="1" parent="2t8qWetCkka7SkBRdkZW-13">
          <mxGeometry y="78" width="190" height="8" as="geometry" />
        </mxCell>
        <mxCell id="2t8qWetCkka7SkBRdkZW-18" value="+takeBooking(int bookId):void" style="text;strokeColor=none;fillColor=none;align=left;verticalAlign=top;spacingLeft=4;spacingRight=4;overflow=hidden;rotatable=0;points=[[0,0.5],[1,0.5]];portConstraint=eastwest;whiteSpace=wrap;html=1;" vertex="1" parent="2t8qWetCkka7SkBRdkZW-13">
          <mxGeometry y="86" width="190" height="32" as="geometry" />
        </mxCell>
        <mxCell id="7w_yky0fwMvZAdhRPD7A-1" value="+printBill(int bookId):void" style="text;strokeColor=none;fillColor=none;align=left;verticalAlign=top;spacingLeft=4;spacingRight=4;overflow=hidden;rotatable=0;points=[[0,0.5],[1,0.5]];portConstraint=eastwest;whiteSpace=wrap;html=1;" vertex="1" parent="2t8qWetCkka7SkBRdkZW-13">
          <mxGeometry y="118" width="190" height="32" as="geometry" />
        </mxCell>
        <mxCell id="2t8qWetCkka7SkBRdkZW-27" value="Admin" style="swimlane;fontStyle=1;align=center;verticalAlign=top;childLayout=stackLayout;horizontal=1;startSize=26;horizontalStack=0;resizeParent=1;resizeParentMax=0;resizeLast=0;collapsible=1;marginBottom=0;whiteSpace=wrap;html=1;" vertex="1" parent="1">
          <mxGeometry x="680" y="574" width="160" height="138" as="geometry">
            <mxRectangle x="200" y="100" width="100" height="30" as="alternateBounds" />
          </mxGeometry>
        </mxCell>
        <mxCell id="2t8qWetCkka7SkBRdkZW-31" value="" style="line;strokeWidth=1;fillColor=none;align=left;verticalAlign=middle;spacingTop=-1;spacingLeft=3;spacingRight=3;rotatable=0;labelPosition=right;points=[];portConstraint=eastwest;strokeColor=inherit;" vertex="1" parent="2t8qWetCkka7SkBRdkZW-27">
          <mxGeometry y="26" width="160" height="8" as="geometry" />
        </mxCell>
        <mxCell id="2t8qWetCkka7SkBRdkZW-32" value="+mngBooking:void" style="text;strokeColor=none;fillColor=none;align=left;verticalAlign=top;spacingLeft=4;spacingRight=4;overflow=hidden;rotatable=0;points=[[0,0.5],[1,0.5]];portConstraint=eastwest;whiteSpace=wrap;html=1;" vertex="1" parent="2t8qWetCkka7SkBRdkZW-27">
          <mxGeometry y="34" width="160" height="26" as="geometry" />
        </mxCell>
        <mxCell id="2t8qWetCkka7SkBRdkZW-33" value="+carMng(int id):bool" style="text;strokeColor=none;fillColor=none;align=left;verticalAlign=top;spacingLeft=4;spacingRight=4;overflow=hidden;rotatable=0;points=[[0,0.5],[1,0.5]];portConstraint=eastwest;whiteSpace=wrap;html=1;" vertex="1" parent="2t8qWetCkka7SkBRdkZW-27">
          <mxGeometry y="60" width="160" height="26" as="geometry" />
        </mxCell>
        <mxCell id="2t8qWetCkka7SkBRdkZW-35" value="+mngUsers():void" style="text;strokeColor=none;fillColor=none;align=left;verticalAlign=top;spacingLeft=4;spacingRight=4;overflow=hidden;rotatable=0;points=[[0,0.5],[1,0.5]];portConstraint=eastwest;whiteSpace=wrap;html=1;" vertex="1" parent="2t8qWetCkka7SkBRdkZW-27">
          <mxGeometry y="86" width="160" height="26" as="geometry" />
        </mxCell>
        <mxCell id="2t8qWetCkka7SkBRdkZW-41" value="+reporting():void" style="text;strokeColor=none;fillColor=none;align=left;verticalAlign=top;spacingLeft=4;spacingRight=4;overflow=hidden;rotatable=0;points=[[0,0.5],[1,0.5]];portConstraint=eastwest;whiteSpace=wrap;html=1;" vertex="1" parent="2t8qWetCkka7SkBRdkZW-27">
          <mxGeometry y="112" width="160" height="26" as="geometry" />
        </mxCell>
        <mxCell id="2t8qWetCkka7SkBRdkZW-37" style="edgeStyle=orthogonalEdgeStyle;rounded=0;orthogonalLoop=1;jettySize=auto;html=1;exitX=1;exitY=0.5;exitDx=0;exitDy=0;entryX=0.511;entryY=1.016;entryDx=0;entryDy=0;entryPerimeter=0;" edge="1" parent="1" source="4XtbS9QP_jxTECoMFuG9-13" target="2t8qWetCkka7SkBRdkZW-12">
          <mxGeometry relative="1" as="geometry" />
        </mxCell>
        <mxCell id="2t8qWetCkka7SkBRdkZW-38" style="edgeStyle=orthogonalEdgeStyle;rounded=0;orthogonalLoop=1;jettySize=auto;html=1;exitX=0;exitY=0.5;exitDx=0;exitDy=0;entryX=0.504;entryY=1.016;entryDx=0;entryDy=0;entryPerimeter=0;" edge="1" parent="1" source="4XtbS9QP_jxTECoMFuG9-27" target="2t8qWetCkka7SkBRdkZW-12">
          <mxGeometry relative="1" as="geometry">
            <Array as="points">
              <mxPoint x="441" y="395" />
            </Array>
          </mxGeometry>
        </mxCell>
        <mxCell id="2t8qWetCkka7SkBRdkZW-39" style="edgeStyle=orthogonalEdgeStyle;rounded=0;orthogonalLoop=1;jettySize=auto;html=1;exitX=0.5;exitY=0;exitDx=0;exitDy=0;entryX=0.621;entryY=0.893;entryDx=0;entryDy=0;entryPerimeter=0;" edge="1" parent="1" source="2t8qWetCkka7SkBRdkZW-13" target="4XtbS9QP_jxTECoMFuG9-29">
          <mxGeometry relative="1" as="geometry" />
        </mxCell>
        <mxCell id="2t8qWetCkka7SkBRdkZW-40" style="edgeStyle=orthogonalEdgeStyle;rounded=0;orthogonalLoop=1;jettySize=auto;html=1;exitX=0.5;exitY=0;exitDx=0;exitDy=0;entryX=0.614;entryY=0.893;entryDx=0;entryDy=0;entryPerimeter=0;" edge="1" parent="1" source="2t8qWetCkka7SkBRdkZW-27" target="4XtbS9QP_jxTECoMFuG9-29">
          <mxGeometry relative="1" as="geometry" />
        </mxCell>
        <mxCell id="2t8qWetCkka7SkBRdkZW-42" value="Order" style="swimlane;fontStyle=1;align=center;verticalAlign=top;childLayout=stackLayout;horizontal=1;startSize=26;horizontalStack=0;resizeParent=1;resizeParentMax=0;resizeLast=0;collapsible=1;marginBottom=0;whiteSpace=wrap;html=1;" vertex="1" parent="1">
          <mxGeometry x="33" y="670" width="290" height="190" as="geometry">
            <mxRectangle x="200" y="100" width="100" height="30" as="alternateBounds" />
          </mxGeometry>
        </mxCell>
        <mxCell id="2t8qWetCkka7SkBRdkZW-43" value="+id:int" style="text;strokeColor=none;fillColor=none;align=left;verticalAlign=top;spacingLeft=4;spacingRight=4;overflow=hidden;rotatable=0;points=[[0,0.5],[1,0.5]];portConstraint=eastwest;whiteSpace=wrap;html=1;" vertex="1" parent="2t8qWetCkka7SkBRdkZW-42">
          <mxGeometry y="26" width="290" height="26" as="geometry" />
        </mxCell>
        <mxCell id="2t8qWetCkka7SkBRdkZW-44" value="+amount:float" style="text;strokeColor=none;fillColor=none;align=left;verticalAlign=top;spacingLeft=4;spacingRight=4;overflow=hidden;rotatable=0;points=[[0,0.5],[1,0.5]];portConstraint=eastwest;whiteSpace=wrap;html=1;" vertex="1" parent="2t8qWetCkka7SkBRdkZW-42">
          <mxGeometry y="52" width="290" height="26" as="geometry" />
        </mxCell>
        <mxCell id="2t8qWetCkka7SkBRdkZW-45" value="+createDateTime:datetime" style="text;strokeColor=none;fillColor=none;align=left;verticalAlign=top;spacingLeft=4;spacingRight=4;overflow=hidden;rotatable=0;points=[[0,0.5],[1,0.5]];portConstraint=eastwest;whiteSpace=wrap;html=1;" vertex="1" parent="2t8qWetCkka7SkBRdkZW-42">
          <mxGeometry y="78" width="290" height="26" as="geometry" />
        </mxCell>
        <mxCell id="2t8qWetCkka7SkBRdkZW-46" value="+status:string" style="text;strokeColor=none;fillColor=none;align=left;verticalAlign=top;spacingLeft=4;spacingRight=4;overflow=hidden;rotatable=0;points=[[0,0.5],[1,0.5]];portConstraint=eastwest;whiteSpace=wrap;html=1;" vertex="1" parent="2t8qWetCkka7SkBRdkZW-42">
          <mxGeometry y="104" width="290" height="26" as="geometry" />
        </mxCell>
        <mxCell id="4XtbS9QP_jxTECoMFuG9-21" value="+destination:String" style="text;strokeColor=none;fillColor=none;align=left;verticalAlign=top;spacingLeft=4;spacingRight=4;overflow=hidden;rotatable=0;points=[[0,0.5],[1,0.5]];portConstraint=eastwest;whiteSpace=wrap;html=1;" vertex="1" parent="2t8qWetCkka7SkBRdkZW-42">
          <mxGeometry y="130" width="290" height="26" as="geometry" />
        </mxCell>
        <mxCell id="4XtbS9QP_jxTECoMFuG9-20" value="+source:string" style="text;strokeColor=none;fillColor=none;align=left;verticalAlign=top;spacingLeft=4;spacingRight=4;overflow=hidden;rotatable=0;points=[[0,0.5],[1,0.5]];portConstraint=eastwest;whiteSpace=wrap;html=1;" vertex="1" parent="2t8qWetCkka7SkBRdkZW-42">
          <mxGeometry y="156" width="290" height="26" as="geometry" />
        </mxCell>
        <mxCell id="2t8qWetCkka7SkBRdkZW-47" value="" style="line;strokeWidth=1;fillColor=none;align=left;verticalAlign=middle;spacingTop=-1;spacingLeft=3;spacingRight=3;rotatable=0;labelPosition=right;points=[];portConstraint=eastwest;strokeColor=inherit;" vertex="1" parent="2t8qWetCkka7SkBRdkZW-42">
          <mxGeometry y="182" width="290" height="8" as="geometry" />
        </mxCell>
        <mxCell id="2t8qWetCkka7SkBRdkZW-51" style="edgeStyle=orthogonalEdgeStyle;rounded=0;orthogonalLoop=1;jettySize=auto;html=1;exitX=0.5;exitY=0;exitDx=0;exitDy=0;entryX=0.475;entryY=0.984;entryDx=0;entryDy=0;entryPerimeter=0;" edge="1" parent="1" source="2t8qWetCkka7SkBRdkZW-42" target="2t8qWetCkka7SkBRdkZW-10">
          <mxGeometry relative="1" as="geometry" />
        </mxCell>
      </root>
    </mxGraphModel>
  </diagram>
  <diagram id="p_hNK84INfBdR-2zl4a4" name="Page-2">
    <mxGraphModel grid="1" page="1" gridSize="10" guides="1" tooltips="1" connect="1" arrows="1" fold="1" pageScale="1" pageWidth="850" pageHeight="1100" math="0" shadow="0">
      <root>
        <mxCell id="0" />
        <mxCell id="1" parent="0" />
        <mxCell id="5wbWXcbHOEthCcjgVBOa-7" value="" style="rounded=0;whiteSpace=wrap;html=1;" vertex="1" parent="1">
          <mxGeometry x="270" y="20" width="280" height="440" as="geometry" />
        </mxCell>
        <mxCell id="5wbWXcbHOEthCcjgVBOa-11" style="rounded=0;orthogonalLoop=1;jettySize=auto;html=1;exitX=0.5;exitY=0.5;exitDx=0;exitDy=0;exitPerimeter=0;" edge="1" parent="1" source="5wbWXcbHOEthCcjgVBOa-2" target="5wbWXcbHOEthCcjgVBOa-16">
          <mxGeometry relative="1" as="geometry" />
        </mxCell>
        <mxCell id="lwO8PuHh9J5HKRgQ065--3" style="rounded=0;orthogonalLoop=1;jettySize=auto;html=1;exitX=1;exitY=0.3333333333333333;exitDx=0;exitDy=0;exitPerimeter=0;" edge="1" parent="1" source="5wbWXcbHOEthCcjgVBOa-2" target="5wbWXcbHOEthCcjgVBOa-19">
          <mxGeometry relative="1" as="geometry" />
        </mxCell>
        <mxCell id="5wbWXcbHOEthCcjgVBOa-2" value="Customer" style="shape=umlActor;verticalLabelPosition=bottom;verticalAlign=top;html=1;outlineConnect=0;" vertex="1" parent="1">
          <mxGeometry x="160" y="160" width="30" height="60" as="geometry" />
        </mxCell>
        <mxCell id="lwO8PuHh9J5HKRgQ065--1" style="rounded=0;orthogonalLoop=1;jettySize=auto;html=1;exitX=0;exitY=1;exitDx=0;exitDy=0;exitPerimeter=0;entryX=1;entryY=0;entryDx=0;entryDy=0;" edge="1" parent="1" source="5wbWXcbHOEthCcjgVBOa-3" target="5wbWXcbHOEthCcjgVBOa-24">
          <mxGeometry relative="1" as="geometry" />
        </mxCell>
        <mxCell id="lwO8PuHh9J5HKRgQ065--2" style="rounded=0;orthogonalLoop=1;jettySize=auto;html=1;exitX=0;exitY=1;exitDx=0;exitDy=0;exitPerimeter=0;entryX=1;entryY=0;entryDx=0;entryDy=0;" edge="1" parent="1" source="5wbWXcbHOEthCcjgVBOa-3" target="5wbWXcbHOEthCcjgVBOa-18">
          <mxGeometry relative="1" as="geometry" />
        </mxCell>
        <mxCell id="5wbWXcbHOEthCcjgVBOa-3" value="Admin" style="shape=umlActor;verticalLabelPosition=bottom;verticalAlign=top;html=1;outlineConnect=0;" vertex="1" parent="1">
          <mxGeometry x="630" y="340" width="30" height="60" as="geometry" />
        </mxCell>
        <mxCell id="5wbWXcbHOEthCcjgVBOa-12" style="rounded=0;orthogonalLoop=1;jettySize=auto;html=1;exitX=0.5;exitY=0.5;exitDx=0;exitDy=0;exitPerimeter=0;" edge="1" parent="1" source="5wbWXcbHOEthCcjgVBOa-4" target="5wbWXcbHOEthCcjgVBOa-27">
          <mxGeometry relative="1" as="geometry" />
        </mxCell>
        <mxCell id="5wbWXcbHOEthCcjgVBOa-4" value="Driver" style="shape=umlActor;verticalLabelPosition=bottom;verticalAlign=top;html=1;outlineConnect=0;" vertex="1" parent="1">
          <mxGeometry x="200" y="400" width="30" height="60" as="geometry" />
        </mxCell>
        <mxCell id="5wbWXcbHOEthCcjgVBOa-17" value="&amp;lt;&amp;lt;include&amp;gt;" style="rounded=0;orthogonalLoop=1;jettySize=auto;html=1;exitX=0;exitY=1;exitDx=0;exitDy=0;entryX=0.5;entryY=0;entryDx=0;entryDy=0;startArrow=classic;startFill=1;endArrow=none;endFill=0;" edge="1" parent="1" source="5wbWXcbHOEthCcjgVBOa-8" target="5wbWXcbHOEthCcjgVBOa-16">
          <mxGeometry x="0.007" relative="1" as="geometry">
            <mxPoint as="offset" />
          </mxGeometry>
        </mxCell>
        <mxCell id="5wbWXcbHOEthCcjgVBOa-8" value="Login" style="ellipse;whiteSpace=wrap;html=1;" vertex="1" parent="1">
          <mxGeometry x="360" y="150" width="120" height="80" as="geometry" />
        </mxCell>
        <mxCell id="5wbWXcbHOEthCcjgVBOa-10" style="rounded=0;orthogonalLoop=1;jettySize=auto;html=1;exitX=0;exitY=1;exitDx=0;exitDy=0;exitPerimeter=0;entryX=1;entryY=0.5;entryDx=0;entryDy=0;" edge="1" parent="1" source="5wbWXcbHOEthCcjgVBOa-3" target="5wbWXcbHOEthCcjgVBOa-32">
          <mxGeometry relative="1" as="geometry" />
        </mxCell>
        <mxCell id="5wbWXcbHOEthCcjgVBOa-13" value="Help" style="ellipse;whiteSpace=wrap;html=1;" vertex="1" parent="1">
          <mxGeometry x="470" y="50" width="70" height="40" as="geometry" />
        </mxCell>
        <mxCell id="5wbWXcbHOEthCcjgVBOa-14" value="&amp;lt;&amp;lt;exclue&amp;gt;" style="rounded=0;orthogonalLoop=1;jettySize=auto;html=1;exitX=0.5;exitY=1;exitDx=0;exitDy=0;entryX=0.61;entryY=0.008;entryDx=0;entryDy=0;entryPerimeter=0;" edge="1" parent="1" source="5wbWXcbHOEthCcjgVBOa-13" target="5wbWXcbHOEthCcjgVBOa-8">
          <mxGeometry relative="1" as="geometry" />
        </mxCell>
        <mxCell id="5wbWXcbHOEthCcjgVBOa-16" value="Make booking" style="ellipse;whiteSpace=wrap;html=1;" vertex="1" parent="1">
          <mxGeometry x="280" y="250" width="85" height="40" as="geometry" />
        </mxCell>
        <mxCell id="5wbWXcbHOEthCcjgVBOa-18" value="MngBooking" style="ellipse;whiteSpace=wrap;html=1;" vertex="1" parent="1">
          <mxGeometry x="435" y="340" width="85" height="40" as="geometry" />
        </mxCell>
        <mxCell id="5wbWXcbHOEthCcjgVBOa-19" value="Make Payment" style="ellipse;whiteSpace=wrap;html=1;" vertex="1" parent="1">
          <mxGeometry x="280" y="80" width="70" height="40" as="geometry" />
        </mxCell>
        <mxCell id="5wbWXcbHOEthCcjgVBOa-20" value="&amp;lt;&amp;lt;exclude&amp;gt;" style="rounded=0;orthogonalLoop=1;jettySize=auto;html=1;exitX=0.5;exitY=1;exitDx=0;exitDy=0;entryX=0.277;entryY=0.108;entryDx=0;entryDy=0;entryPerimeter=0;" edge="1" parent="1" source="5wbWXcbHOEthCcjgVBOa-19" target="5wbWXcbHOEthCcjgVBOa-8">
          <mxGeometry relative="1" as="geometry" />
        </mxCell>
        <mxCell id="5wbWXcbHOEthCcjgVBOa-21" style="rounded=0;orthogonalLoop=1;jettySize=auto;html=1;exitX=0.5;exitY=0;exitDx=0;exitDy=0;entryX=0.777;entryY=0.908;entryDx=0;entryDy=0;entryPerimeter=0;" edge="1" parent="1" source="5wbWXcbHOEthCcjgVBOa-18" target="5wbWXcbHOEthCcjgVBOa-8">
          <mxGeometry relative="1" as="geometry" />
        </mxCell>
        <mxCell id="5wbWXcbHOEthCcjgVBOa-22" value="&amp;lt;&amp;lt;include&amp;gt;" style="edgeLabel;html=1;align=center;verticalAlign=middle;resizable=0;points=[];" connectable="0" vertex="1" parent="5wbWXcbHOEthCcjgVBOa-21">
          <mxGeometry x="-0.1746" y="1" relative="1" as="geometry">
            <mxPoint as="offset" />
          </mxGeometry>
        </mxCell>
        <mxCell id="5wbWXcbHOEthCcjgVBOa-24" value="UserMng" style="ellipse;whiteSpace=wrap;html=1;" vertex="1" parent="1">
          <mxGeometry x="480" y="240" width="85" height="40" as="geometry" />
        </mxCell>
        <mxCell id="5wbWXcbHOEthCcjgVBOa-25" style="rounded=0;orthogonalLoop=1;jettySize=auto;html=1;entryX=0.91;entryY=0.798;entryDx=0;entryDy=0;entryPerimeter=0;" edge="1" parent="1" source="5wbWXcbHOEthCcjgVBOa-24" target="5wbWXcbHOEthCcjgVBOa-8">
          <mxGeometry relative="1" as="geometry">
            <mxPoint x="488" y="350" as="sourcePoint" />
            <mxPoint x="463" y="233" as="targetPoint" />
          </mxGeometry>
        </mxCell>
        <mxCell id="5wbWXcbHOEthCcjgVBOa-26" value="&amp;lt;&amp;lt;include&amp;gt;" style="edgeLabel;html=1;align=center;verticalAlign=middle;resizable=0;points=[];" connectable="0" vertex="1" parent="5wbWXcbHOEthCcjgVBOa-25">
          <mxGeometry x="-0.1746" y="1" relative="1" as="geometry">
            <mxPoint as="offset" />
          </mxGeometry>
        </mxCell>
        <mxCell id="5wbWXcbHOEthCcjgVBOa-27" value="Take booking" style="ellipse;whiteSpace=wrap;html=1;" vertex="1" parent="1">
          <mxGeometry x="300" y="340" width="85" height="40" as="geometry" />
        </mxCell>
        <mxCell id="5wbWXcbHOEthCcjgVBOa-28" style="rounded=0;orthogonalLoop=1;jettySize=auto;html=1;exitX=0.5;exitY=0;exitDx=0;exitDy=0;entryX=0.377;entryY=0.978;entryDx=0;entryDy=0;entryPerimeter=0;" edge="1" parent="1" source="5wbWXcbHOEthCcjgVBOa-27" target="5wbWXcbHOEthCcjgVBOa-8">
          <mxGeometry relative="1" as="geometry" />
        </mxCell>
        <mxCell id="5wbWXcbHOEthCcjgVBOa-29" value="&amp;lt;&amp;lt;include&amp;gt;" style="edgeLabel;html=1;align=center;verticalAlign=middle;resizable=0;points=[];" connectable="0" vertex="1" parent="5wbWXcbHOEthCcjgVBOa-28">
          <mxGeometry x="-0.3336" y="1" relative="1" as="geometry">
            <mxPoint as="offset" />
          </mxGeometry>
        </mxCell>
        <mxCell id="5wbWXcbHOEthCcjgVBOa-31" value="&amp;lt;&amp;lt;exclude&amp;gt;" style="rounded=0;orthogonalLoop=1;jettySize=auto;html=1;exitX=0.5;exitY=1;exitDx=0;exitDy=0;entryX=0.5;entryY=0;entryDx=0;entryDy=0;" edge="1" parent="1" source="5wbWXcbHOEthCcjgVBOa-30" target="5wbWXcbHOEthCcjgVBOa-8">
          <mxGeometry relative="1" as="geometry" />
        </mxCell>
        <mxCell id="5wbWXcbHOEthCcjgVBOa-30" value="Registration" style="ellipse;whiteSpace=wrap;html=1;" vertex="1" parent="1">
          <mxGeometry x="365" y="30" width="70" height="40" as="geometry" />
        </mxCell>
        <mxCell id="5wbWXcbHOEthCcjgVBOa-32" value="Reporting" style="ellipse;whiteSpace=wrap;html=1;" vertex="1" parent="1">
          <mxGeometry x="320" y="400" width="85" height="40" as="geometry" />
        </mxCell>
        <mxCell id="5wbWXcbHOEthCcjgVBOa-33" value="&amp;lt;&amp;lt;include&amp;gt;" style="rounded=0;orthogonalLoop=1;jettySize=auto;html=1;exitX=1;exitY=0;exitDx=0;exitDy=0;entryX=0.423;entryY=0.988;entryDx=0;entryDy=0;entryPerimeter=0;" edge="1" parent="1" source="5wbWXcbHOEthCcjgVBOa-32" target="5wbWXcbHOEthCcjgVBOa-8">
          <mxGeometry relative="1" as="geometry" />
        </mxCell>
      </root>
    </mxGraphModel>
  </diagram>
  <diagram id="QtvLWlkRadveDnnHdPwH" name="Page-3">
    <mxGraphModel grid="1" page="1" gridSize="10" guides="1" tooltips="1" connect="1" arrows="1" fold="1" pageScale="1" pageWidth="850" pageHeight="1100" math="0" shadow="0">
      <root>
        <mxCell id="0" />
        <mxCell id="1" parent="0" />
        <mxCell id="286uBd7YME20k6sqKr3g-3" value="" style="shape=umlLifeline;perimeter=lifelinePerimeter;whiteSpace=wrap;html=1;container=1;dropTarget=0;collapsible=0;recursiveResize=0;outlineConnect=0;portConstraint=eastwest;newEdgeStyle={&quot;curved&quot;:0,&quot;rounded&quot;:0};participant=umlActor;" vertex="1" parent="1">
          <mxGeometry x="30" y="80" width="20" height="300" as="geometry" />
        </mxCell>
        <mxCell id="286uBd7YME20k6sqKr3g-4" value="" style="shape=umlDestroy;whiteSpace=wrap;html=1;strokeWidth=3;targetShapes=umlLifeline;" vertex="1" parent="1">
          <mxGeometry x="25" y="370" width="30" height="30" as="geometry" />
        </mxCell>
        <mxCell id="286uBd7YME20k6sqKr3g-5" value="" style="html=1;points=[[0,0,0,0,5],[0,1,0,0,-5],[1,0,0,0,5],[1,1,0,0,-5]];perimeter=orthogonalPerimeter;outlineConnect=0;targetShapes=umlLifeline;portConstraint=eastwest;newEdgeStyle={&quot;curved&quot;:0,&quot;rounded&quot;:0};" vertex="1" parent="1">
          <mxGeometry x="120" y="130" width="10" height="80" as="geometry" />
        </mxCell>
        <mxCell id="286uBd7YME20k6sqKr3g-6" value="Click Login" style="html=1;verticalAlign=bottom;endArrow=block;curved=0;rounded=0;entryX=0;entryY=0;entryDx=0;entryDy=5;" edge="1" parent="1" target="286uBd7YME20k6sqKr3g-5">
          <mxGeometry relative="1" as="geometry">
            <mxPoint x="40" y="135" as="sourcePoint" />
          </mxGeometry>
        </mxCell>
        <mxCell id="286uBd7YME20k6sqKr3g-9" value="" style="html=1;points=[[0,0,0,0,5],[0,1,0,0,-5],[1,0,0,0,5],[1,1,0,0,-5]];perimeter=orthogonalPerimeter;outlineConnect=0;targetShapes=umlLifeline;portConstraint=eastwest;newEdgeStyle={&quot;curved&quot;:0,&quot;rounded&quot;:0};" vertex="1" parent="1">
          <mxGeometry x="240" y="130" width="10" height="80" as="geometry" />
        </mxCell>
        <mxCell id="286uBd7YME20k6sqKr3g-10" value="validate username pwd" style="html=1;verticalAlign=bottom;endArrow=block;curved=0;rounded=0;entryX=0;entryY=0;entryDx=0;entryDy=5;" edge="1" parent="1" target="286uBd7YME20k6sqKr3g-9">
          <mxGeometry relative="1" as="geometry">
            <mxPoint x="120" y="135" as="sourcePoint" />
          </mxGeometry>
        </mxCell>
        <mxCell id="286uBd7YME20k6sqKr3g-11" value="login successful&amp;nbsp;" style="html=1;verticalAlign=bottom;endArrow=open;dashed=1;endSize=8;curved=0;rounded=0;exitX=0;exitY=1;exitDx=0;exitDy=-5;entryX=1;entryY=1;entryDx=0;entryDy=-5;entryPerimeter=0;" edge="1" parent="1" source="286uBd7YME20k6sqKr3g-9" target="286uBd7YME20k6sqKr3g-5">
          <mxGeometry relative="1" as="geometry">
            <mxPoint x="120" y="205" as="targetPoint" />
            <mxPoint as="offset" />
          </mxGeometry>
        </mxCell>
        <mxCell id="286uBd7YME20k6sqKr3g-13" value="home page" style="html=1;verticalAlign=bottom;endArrow=open;dashed=1;endSize=8;curved=0;rounded=0;exitX=0;exitY=1;exitDx=0;exitDy=-5;exitPerimeter=0;" edge="1" parent="1" source="286uBd7YME20k6sqKr3g-5" target="286uBd7YME20k6sqKr3g-3">
          <mxGeometry relative="1" as="geometry">
            <mxPoint x="40" y="200" as="targetPoint" />
            <mxPoint x="110" y="200" as="sourcePoint" />
          </mxGeometry>
        </mxCell>
        <mxCell id="286uBd7YME20k6sqKr3g-16" value="" style="html=1;points=[[0,0,0,0,5],[0,1,0,0,-5],[1,0,0,0,5],[1,1,0,0,-5]];perimeter=orthogonalPerimeter;outlineConnect=0;targetShapes=umlLifeline;portConstraint=eastwest;newEdgeStyle={&quot;curved&quot;:0,&quot;rounded&quot;:0};" vertex="1" parent="1">
          <mxGeometry x="380" y="130" width="10" height="80" as="geometry" />
        </mxCell>
        <mxCell id="286uBd7YME20k6sqKr3g-17" value="credential are is true" style="html=1;verticalAlign=bottom;endArrow=block;curved=0;rounded=0;entryX=0;entryY=0;entryDx=0;entryDy=5;exitX=1;exitY=0;exitDx=0;exitDy=5;exitPerimeter=0;" edge="1" parent="1" source="286uBd7YME20k6sqKr3g-9" target="286uBd7YME20k6sqKr3g-16">
          <mxGeometry relative="1" as="geometry">
            <mxPoint x="200" y="135" as="sourcePoint" />
          </mxGeometry>
        </mxCell>
        <mxCell id="286uBd7YME20k6sqKr3g-18" value="is Customer" style="html=1;verticalAlign=bottom;endArrow=open;dashed=1;endSize=8;curved=0;rounded=0;exitX=0;exitY=1;exitDx=0;exitDy=-5;entryX=1;entryY=1;entryDx=0;entryDy=-5;entryPerimeter=0;" edge="1" parent="1" source="286uBd7YME20k6sqKr3g-16" target="286uBd7YME20k6sqKr3g-9">
          <mxGeometry relative="1" as="geometry">
            <mxPoint x="200" y="205" as="targetPoint" />
            <mxPoint as="offset" />
          </mxGeometry>
        </mxCell>
        <mxCell id="286uBd7YME20k6sqKr3g-19" value="is Employee" style="html=1;verticalAlign=bottom;endArrow=open;dashed=1;endSize=8;curved=0;rounded=0;exitX=0;exitY=1;exitDx=0;exitDy=-5;entryX=1;entryY=1;entryDx=0;entryDy=-5;entryPerimeter=0;" edge="1" parent="1">
          <mxGeometry relative="1" as="geometry">
            <mxPoint x="250" y="169.5" as="targetPoint" />
            <mxPoint x="380" y="169.5" as="sourcePoint" />
            <mxPoint as="offset" />
          </mxGeometry>
        </mxCell>
        <mxCell id="286uBd7YME20k6sqKr3g-25" value="" style="endArrow=none;dashed=1;html=1;strokeWidth=2;rounded=0;" edge="1" parent="1">
          <mxGeometry width="50" height="50" relative="1" as="geometry">
            <mxPoint x="386" y="390" as="sourcePoint" />
            <mxPoint x="386" y="113" as="targetPoint" />
          </mxGeometry>
        </mxCell>
        <mxCell id="286uBd7YME20k6sqKr3g-26" value="" style="endArrow=none;dashed=1;html=1;strokeWidth=2;rounded=0;" edge="1" parent="1">
          <mxGeometry width="50" height="50" relative="1" as="geometry">
            <mxPoint x="245" y="390" as="sourcePoint" />
            <mxPoint x="244.5" y="110" as="targetPoint" />
          </mxGeometry>
        </mxCell>
        <mxCell id="286uBd7YME20k6sqKr3g-27" value="" style="endArrow=none;dashed=1;html=1;strokeWidth=2;rounded=0;" edge="1" parent="1">
          <mxGeometry width="50" height="50" relative="1" as="geometry">
            <mxPoint x="125" y="390" as="sourcePoint" />
            <mxPoint x="124.5" y="110" as="targetPoint" />
          </mxGeometry>
        </mxCell>
        <mxCell id="286uBd7YME20k6sqKr3g-28" value="invalid login" style="html=1;verticalAlign=bottom;endArrow=open;dashed=1;endSize=8;curved=0;rounded=0;entryX=1;entryY=1;entryDx=0;entryDy=-5;entryPerimeter=0;" edge="1" parent="1">
          <mxGeometry relative="1" as="geometry">
            <mxPoint x="40" y="229.5" as="targetPoint" />
            <mxPoint x="380" y="230" as="sourcePoint" />
            <mxPoint as="offset" />
          </mxGeometry>
        </mxCell>
        <mxCell id="286uBd7YME20k6sqKr3g-29" value="" style="html=1;points=[[0,0,0,0,5],[0,1,0,0,-5],[1,0,0,0,5],[1,1,0,0,-5]];perimeter=orthogonalPerimeter;outlineConnect=0;targetShapes=umlLifeline;portConstraint=eastwest;newEdgeStyle={&quot;curved&quot;:0,&quot;rounded&quot;:0};" vertex="1" parent="1">
          <mxGeometry x="510" y="220" width="10" height="80" as="geometry" />
        </mxCell>
        <mxCell id="286uBd7YME20k6sqKr3g-30" value="make Order" style="html=1;verticalAlign=bottom;endArrow=block;curved=0;rounded=0;entryX=0;entryY=0;entryDx=0;entryDy=5;" edge="1" parent="1" target="286uBd7YME20k6sqKr3g-29">
          <mxGeometry relative="1" as="geometry">
            <mxPoint x="385" y="225" as="sourcePoint" />
          </mxGeometry>
        </mxCell>
        <mxCell id="286uBd7YME20k6sqKr3g-31" value="successful message" style="html=1;verticalAlign=bottom;endArrow=open;dashed=1;endSize=8;curved=0;rounded=0;exitX=0;exitY=1;exitDx=0;exitDy=-5;" edge="1" parent="1" source="286uBd7YME20k6sqKr3g-29" target="286uBd7YME20k6sqKr3g-3">
          <mxGeometry relative="1" as="geometry">
            <mxPoint x="385" y="295" as="targetPoint" />
          </mxGeometry>
        </mxCell>
        <mxCell id="286uBd7YME20k6sqKr3g-33" value="" style="html=1;points=[[0,0,0,0,5],[0,1,0,0,-5],[1,0,0,0,5],[1,1,0,0,-5]];perimeter=orthogonalPerimeter;outlineConnect=0;targetShapes=umlLifeline;portConstraint=eastwest;newEdgeStyle={&quot;curved&quot;:0,&quot;rounded&quot;:0};" vertex="1" parent="1">
          <mxGeometry x="650" y="220" width="10" height="80" as="geometry" />
        </mxCell>
        <mxCell id="286uBd7YME20k6sqKr3g-34" value="validate" style="html=1;verticalAlign=bottom;endArrow=block;curved=0;rounded=0;entryX=0;entryY=0;entryDx=0;entryDy=5;" edge="1" parent="1" target="286uBd7YME20k6sqKr3g-33">
          <mxGeometry relative="1" as="geometry">
            <mxPoint x="520" y="225" as="sourcePoint" />
          </mxGeometry>
        </mxCell>
        <mxCell id="286uBd7YME20k6sqKr3g-35" value="print recipt" style="html=1;verticalAlign=bottom;endArrow=open;dashed=1;endSize=8;curved=0;rounded=0;exitX=0;exitY=1;exitDx=0;exitDy=-5;" edge="1" parent="1" source="286uBd7YME20k6sqKr3g-33">
          <mxGeometry relative="1" as="geometry">
            <mxPoint x="520" y="295" as="targetPoint" />
          </mxGeometry>
        </mxCell>
        <mxCell id="286uBd7YME20k6sqKr3g-37" value="" style="endArrow=none;dashed=1;html=1;strokeWidth=2;rounded=0;" edge="1" parent="1">
          <mxGeometry width="50" height="50" relative="1" as="geometry">
            <mxPoint x="655" y="390" as="sourcePoint" />
            <mxPoint x="655" y="110" as="targetPoint" />
          </mxGeometry>
        </mxCell>
        <mxCell id="286uBd7YME20k6sqKr3g-38" value="error message" style="html=1;verticalAlign=bottom;endArrow=open;dashed=1;endSize=8;curved=0;rounded=0;" edge="1" parent="1">
          <mxGeometry relative="1" as="geometry">
            <mxPoint x="39.5" y="320" as="targetPoint" />
            <mxPoint x="650" y="320" as="sourcePoint" />
          </mxGeometry>
        </mxCell>
      </root>
    </mxGraphModel>
  </diagram>
</mxfile>
